<svg id="Capa_1" enable-background="new 0 0 512 512" height="512" viewBox="0 0 512 512" width="512" xmlns="http://www.w3.org/2000/svg"><g><path fill="#5B86D4" d="m482 62.57v-62.57h-90v15c0 8.271-6.729 15-15 15s-15-6.729-15-15v-15h-90v62.57c-17.461 6.191-30 22.873-30 42.43s12.539 36.239 30 42.43v62.57h90v-15c0-8.271 6.729-15 15-15s15 6.729 15 15v15h90v-62.57c17.461-6.191 30-22.873 30-42.43s-12.539-36.239-30-42.43zm-15 57.43h-15v60h-32.57c-6.191-17.461-22.874-30-42.43-30s-36.239 12.539-42.43 30h-32.57v-60h-15c-8.271 0-15-6.729-15-15s6.729-15 15-15h15v-60h32.57c6.191 17.461 22.874 30 42.43 30s36.239-12.539 42.43-30h32.57v60h15c8.271 0 15 6.729 15 15s-6.729 15-15 15z"/><path fill="#5B86D4" d="m285 242c-19.556 0-36.239 12.539-42.43 30h-32.57v-60h-15c-8.271 0-15-6.729-15-15s6.729-15 15-15h15v-90h-62.57c-6.191-17.461-22.874-30-42.43-30s-36.239 12.539-42.43 30h-62.57v90h15c8.271 0 15 6.729 15 15s-6.729 15-15 15h-15v150h15c8.271 0 15 6.729 15 15s-6.729 15-15 15h-15v90h90v-15c0-8.271 6.729-15 15-15s15 6.729 15 15v15h122.57c6.191 17.461 22.874 30 42.43 30s36.239-12.539 42.43-30h62.57v-90h-15c-8.271 0-15-6.729-15-15s6.729-15 15-15h15v-90h-62.57c-6.191-17.461-22.874-30-42.43-30zm-225-45c0-19.556-12.539-36.239-30-42.43v-32.57h60v-15c0-8.271 6.729-15 15-15s15 6.729 15 15v15h60v32.57c-17.461 6.191-30 22.873-30 42.43s12.539 36.239 30 42.43v32.57h-60v15c0 8.271-6.729 15-15 15s-15-6.729-15-15v-15h-60v-32.57c17.461-6.191 30-22.874 30-42.43zm45 225c-19.556 0-36.239 12.539-42.43 30h-32.57v-32.57c17.461-6.191 30-22.874 30-42.43s-12.539-36.239-30-42.43v-32.57h32.57c6.191 17.461 22.874 30 42.43 30s36.239-12.539 42.43-30h32.57v60h15c8.271 0 15 6.729 15 15s-6.729 15-15 15h-15v60h-32.57c-6.191-17.461-22.874-30-42.43-30zm255-87.43c-17.461 6.191-30 22.874-30 42.43s12.539 36.239 30 42.43v32.57h-60v15c0 8.271-6.729 15-15 15s-15-6.729-15-15v-15h-60v-32.57c17.461-6.191 30-22.874 30-42.43s-12.539-36.239-30-42.43v-32.57h60v-15c0-8.271 6.729-15 15-15s15 6.729 15 15v15h60z"/></g></svg>