<svg id="Capa_1" enable-background="new 0 0 512 512" height="512" viewBox="0 0 512 512" width="512" xmlns="http://www.w3.org/2000/svg"><g><path fill="#5B86D4" d="m154.73 117.016c7.54-7.569 12.218-17.972 12.218-29.396v-16.81c-12.473 2.154-34.355 2.75-52.413-13.068-1.163-.992-1.333-.766-2.552-.085-3.912 2.24-9.298 4.621-15.789 5.698-3.827.652-7.993.823-12.473.255v24.01c0 11.424 4.706 21.827 12.246 29.396 7.795 7.795 18.312 12.217 29.367 12.217 11.085 0 21.602-4.422 29.396-12.217zm247.298 203.756c2.92-2.92 7.682-2.92 10.602 0s2.92 7.682 0 10.602l-20.692 20.693c-2.92 2.919-7.654 2.919-10.603 0l-20.665-20.693c-2.948-2.919-2.948-7.682 0-10.602 2.92-2.92 7.682-2.92 10.602 0l7.88 7.88v-66.672h-84.7c-4.139 0-7.512-3.345-7.512-7.483v-67.409c0-17.348 7.087-33.137 18.54-44.561 10.006-10.006 23.329-16.696 38.126-18.199-8.447-9.921-13.578-22.734-13.578-36.709v-52.639c0-9.609 3.94-18.369 10.29-24.718 6.321-6.322 15.079-10.262 24.717-10.262h43.229c9.638 0 18.397 3.94 24.718 10.262 6.35 6.35 10.29 15.109 10.29 24.718v52.64c0 13.975-5.131 26.788-13.607 36.709 14.825 1.502 28.149 8.192 38.154 18.199 11.425 11.424 18.54 27.213 18.54 44.561v9.156c0 4.139-3.373 7.512-7.512 7.512s-7.484-3.373-7.484-7.512v-9.156c0-13.21-5.415-25.229-14.145-33.959-8.73-8.731-20.75-14.145-33.959-14.145h-12.869c-7.228 3.373-15.279 5.244-23.754 5.244-8.448 0-16.499-1.871-23.727-5.244h-12.869c-13.21 0-25.257 5.414-33.959 14.145-8.73 8.73-14.145 20.749-14.145 33.959v59.897h31.152v-59.897c0-4.139 3.345-7.512 7.483-7.512 4.139 0 7.512 3.373 7.512 7.512v59.897h77.132v-59.897c0-4.139 3.373-7.512 7.512-7.512s7.483 3.373 7.483 7.512v59.897h31.153v-16.782c0-4.138 3.346-7.483 7.484-7.483 4.139 0 7.512 3.345 7.512 7.483v24.294c0 4.139-3.373 7.483-7.512 7.483h-84.7v66.672zm-261.301 0c2.92-2.92 7.682-2.92 10.602 0s2.92 7.682 0 10.602l-20.692 20.693c-2.92 2.919-7.654 2.919-10.603 0l-20.665-20.693c-2.948-2.919-2.948-7.682 0-10.602 2.92-2.92 7.682-2.92 10.602 0l7.881 7.88v-66.672h-84.7c-4.139 0-7.512-3.345-7.512-7.483v-67.409c0-17.348 7.086-33.137 18.539-44.561 10.007-10.006 23.329-16.696 38.126-18.199-8.447-9.893-13.578-22.734-13.578-36.709v-52.639c0-9.609 3.94-18.369 10.29-24.718 6.321-6.322 15.08-10.262 24.717-10.262h43.229c9.638 0 18.396 3.94 24.719 10.262 6.35 6.35 10.289 15.109 10.289 24.718v52.64c0 13.975-5.131 26.816-13.606 36.709 14.825 1.502 28.148 8.192 38.154 18.199 11.425 11.424 18.54 27.213 18.54 44.561v9.156c0 4.139-3.373 7.512-7.512 7.512-4.14 0-7.484-3.373-7.484-7.512v-9.156c0-13.21-5.414-25.229-14.146-33.959-8.73-8.731-20.749-14.145-33.959-14.145h-12.868c-7.229 3.373-15.278 5.244-23.755 5.244-8.447 0-16.498-1.871-23.727-5.244h-12.869c-13.209 0-25.257 5.414-33.959 14.145-8.73 8.73-14.146 20.749-14.146 33.959v59.897h31.153v-59.897c0-4.139 3.345-7.512 7.483-7.512s7.512 3.373 7.512 7.512v59.897h77.132v-59.897c0-4.139 3.373-7.512 7.512-7.512s7.483 3.373 7.483 7.512v59.897h31.153v-16.782c0-4.138 3.345-7.483 7.484-7.483s7.512 3.345 7.512 7.483v24.294c0 4.139-3.373 7.483-7.512 7.483h-84.7v66.672zm-50.541 122.146c-2.92-2.919-2.92-7.682 0-10.602 2.919-2.948 7.682-2.948 10.602 0l16.865 16.867 32.26-32.259c2.92-2.92 7.682-2.92 10.602 0 2.92 2.948 2.92 7.682 0 10.602l-37.561 37.56c-2.919 2.919-7.682 2.919-10.602 0zm240.465-18.907c0 4.167-3.374 7.512-7.512 7.512-4.139 0-7.484-3.345-7.484-7.512v-46.488c0-4.167 3.346-7.512 7.484-7.512h127.021c4.139 0 7.484 3.345 7.484 7.512v126.994c0 4.138-3.346 7.483-7.484 7.483h-127.02c-4.139 0-7.484-3.345-7.484-7.483v-46.517c0-4.139 3.346-7.512 7.484-7.512s7.512 3.373 7.512 7.512v39.005h111.997v-111.999h-111.998zm-261.3 0c0 4.167-3.373 7.512-7.512 7.512s-7.483-3.345-7.483-7.512v-46.488c0-4.167 3.345-7.512 7.483-7.512h127.021c4.139 0 7.483 3.345 7.483 7.512v126.994c0 4.138-3.345 7.483-7.483 7.483h-127.021c-4.139 0-7.483-3.345-7.483-7.483v-46.517c0-4.139 3.345-7.512 7.483-7.512 4.139 0 7.512 3.373 7.512 7.512v39.005h111.998v-111.999h-111.998zm300.418 44.477c-2.919 2.919-7.682 2.919-10.602 0-2.919-2.92-2.919-7.682 0-10.602l16.866-16.867-16.866-16.895c-2.919-2.92-2.919-7.654 0-10.602 2.92-2.92 7.683-2.92 10.602 0l16.868 16.895 16.894-16.895c2.92-2.92 7.654-2.92 10.602 0 2.92 2.948 2.92 7.682 0 10.602l-16.866 16.895 16.866 16.867c2.92 2.919 2.92 7.682 0 10.602-2.947 2.919-7.682 2.919-10.602 0l-16.894-16.866zm-24.747-420.015c3.629.708 7.002.624 10.007.113 3.968-.652 7.597-2.069 11.055-4.054 8.929-5.074 10.517-5.981 19.588 1.956 14.968 13.096 33.761 11.083 42.577 9.128v-20.636c0-5.471-2.239-10.459-5.868-14.088-3.628-3.628-8.617-5.896-14.116-5.896h-43.229c-5.499 0-10.488 2.268-14.116 5.896-3.629 3.629-5.896 8.618-5.896 14.088v13.493zm83.227 22.338c-12.473 2.154-34.356 2.75-52.414-13.068-1.162-.992-1.332-.766-2.551-.085-3.912 2.24-9.298 4.621-15.789 5.698-3.827.652-7.994.823-12.473.255v24.01c0 11.424 4.705 21.827 12.246 29.396 7.795 7.795 18.312 12.217 29.368 12.217 11.083 0 21.6-4.422 29.395-12.217 7.54-7.569 12.218-17.972 12.218-29.396zm-261.301-15.194v-20.637c0-5.471-2.239-10.459-5.868-14.088-3.628-3.628-8.617-5.896-14.116-5.896h-43.229c-5.499 0-10.488 2.268-14.116 5.896-3.628 3.629-5.896 8.618-5.896 14.088v13.493c3.629.708 7.002.624 10.007.113 3.969-.652 7.597-2.069 11.055-4.054 8.93-5.074 10.517-5.981 19.588 1.956 14.966 13.097 33.76 11.084 42.575 9.129z"/></g></svg>